<svg xmlns="http://www.w3.org/2000/svg" enable-background="new 0 0 79.6 99.514" viewBox="0 0 79.6 99.514" id="person-profile">
  <path d="M39.8,46.259c-12.647,0-22.937-10.29-22.937-22.937S27.153,0.386,39.8,0.386c12.648,0,22.937,10.289,22.937,22.937
	S52.448,46.259,39.8,46.259z M39.8,4.386c-10.441,0-18.937,8.495-18.937,18.937c0,10.442,8.495,18.937,18.937,18.937
	c10.442,0,18.937-8.495,18.937-18.937C58.737,12.881,50.242,4.386,39.8,4.386z"></path>
  <path d="M39.791,99.128c-14.434,0-28.035-5.576-38.297-15.701c-0.387-0.382-0.602-0.905-0.595-1.449
	c0.075-5.927,1.446-11.603,4.075-16.87l0,0c6.635-13.289,19.976-21.545,34.817-21.545c21.189,0,38.644,17.233,38.91,38.415
	c0.007,0.544-0.208,1.067-0.596,1.449C67.844,93.552,54.237,99.128,39.791,99.128z M4.92,81.177
	c9.434,9.004,21.783,13.951,34.872,13.951c13.101,0,25.456-4.947,34.889-13.951c-0.687-18.612-16.162-33.614-34.889-33.614
	c-13.315,0-25.285,7.407-31.238,19.332C6.321,71.366,5.101,76.167,4.92,81.177z"></path>
</svg>
